<mxfile host="app.diagrams.net" modified="2021-09-01T15:04:23.831Z" agent="5.0 (Windows)" etag="2cLxnA13JfSRLt4YRpxR" version="15.0.4" type="github">
  <diagram id="Gzh1vEXdIfz71GAEQ342" name="Page-1">
    <mxGraphModel dx="4367" dy="2670" grid="1" gridSize="10" guides="1" tooltips="1" connect="1" arrows="1" fold="1" page="1" pageScale="1" pageWidth="2336" pageHeight="1654" math="0" shadow="0">
      <root>
        <mxCell id="0" />
        <mxCell id="1" parent="0" />
        <mxCell id="9Nk0hv0ekXMGAtVD4ZqK-1" style="edgeStyle=orthogonalEdgeStyle;rounded=0;orthogonalLoop=1;jettySize=auto;html=1;exitX=1;exitY=0.5;exitDx=0;exitDy=0;fontSize=53;fontColor=#FF0000;entryX=0;entryY=0.5;entryDx=0;entryDy=0;" parent="1" source="c1VsCLN2mkpz4TLPh9um-1" target="c1VsCLN2mkpz4TLPh9um-2" edge="1">
          <mxGeometry relative="1" as="geometry">
            <mxPoint x="-2050" y="-1080" as="targetPoint" />
            <Array as="points">
              <mxPoint x="-2095" y="-1085" />
              <mxPoint x="-2028" y="-1085" />
            </Array>
          </mxGeometry>
        </mxCell>
        <mxCell id="c1VsCLN2mkpz4TLPh9um-1" value="Submtted" style="rounded=1;whiteSpace=wrap;html=1;arcSize=50;" parent="1" vertex="1">
          <mxGeometry x="-2280" y="-1114.75" width="120" height="60" as="geometry" />
        </mxCell>
        <mxCell id="UjUhAZu07TOuGVpuegit-44" style="edgeStyle=orthogonalEdgeStyle;rounded=0;orthogonalLoop=1;jettySize=auto;html=1;exitX=0.5;exitY=1;exitDx=0;exitDy=0;entryX=0;entryY=0.5;entryDx=0;entryDy=0;fontSize=17;" parent="1" source="c1VsCLN2mkpz4TLPh9um-2" target="UjUhAZu07TOuGVpuegit-1" edge="1">
          <mxGeometry relative="1" as="geometry" />
        </mxCell>
        <mxCell id="UjUhAZu07TOuGVpuegit-45" style="edgeStyle=orthogonalEdgeStyle;rounded=0;orthogonalLoop=1;jettySize=auto;html=1;exitX=0.5;exitY=0;exitDx=0;exitDy=0;entryX=0;entryY=0.5;entryDx=0;entryDy=0;fontSize=17;" parent="1" source="c1VsCLN2mkpz4TLPh9um-2" target="c1VsCLN2mkpz4TLPh9um-4" edge="1">
          <mxGeometry relative="1" as="geometry">
            <Array as="points">
              <mxPoint x="-1993" y="-1234" />
            </Array>
          </mxGeometry>
        </mxCell>
        <mxCell id="UjUhAZu07TOuGVpuegit-47" style="edgeStyle=orthogonalEdgeStyle;rounded=0;orthogonalLoop=1;jettySize=auto;html=1;exitX=1;exitY=0.5;exitDx=0;exitDy=0;entryX=0;entryY=0.5;entryDx=0;entryDy=0;fontSize=17;" parent="1" source="c1VsCLN2mkpz4TLPh9um-2" target="c1VsCLN2mkpz4TLPh9um-5" edge="1">
          <mxGeometry relative="1" as="geometry" />
        </mxCell>
        <mxCell id="c1VsCLN2mkpz4TLPh9um-2" value="Type" style="rhombus;whiteSpace=wrap;html=1;" parent="1" vertex="1">
          <mxGeometry x="-2028" y="-1109.25" width="70" height="49" as="geometry" />
        </mxCell>
        <mxCell id="UjUhAZu07TOuGVpuegit-135" style="edgeStyle=orthogonalEdgeStyle;rounded=0;orthogonalLoop=1;jettySize=auto;html=1;exitX=1;exitY=0.5;exitDx=0;exitDy=0;entryX=0;entryY=0.5;entryDx=0;entryDy=0;fontSize=53;fontColor=#FF0000;" parent="1" source="c1VsCLN2mkpz4TLPh9um-4" target="UjUhAZu07TOuGVpuegit-15" edge="1">
          <mxGeometry relative="1" as="geometry" />
        </mxCell>
        <mxCell id="c1VsCLN2mkpz4TLPh9um-4" value="GIFTS" style="rounded=0;whiteSpace=wrap;html=1;" parent="1" vertex="1">
          <mxGeometry x="-1908" y="-1263.75" width="120" height="60" as="geometry" />
        </mxCell>
        <mxCell id="UjUhAZu07TOuGVpuegit-33" style="edgeStyle=orthogonalEdgeStyle;rounded=0;orthogonalLoop=1;jettySize=auto;html=1;exitX=1;exitY=0.5;exitDx=0;exitDy=0;fontSize=12;entryX=0.5;entryY=0;entryDx=0;entryDy=0;startArrow=none;" parent="1" source="9Nk0hv0ekXMGAtVD4ZqK-14" target="UjUhAZu07TOuGVpuegit-24" edge="1">
          <mxGeometry relative="1" as="geometry">
            <mxPoint x="-1178" y="-1142" as="targetPoint" />
          </mxGeometry>
        </mxCell>
        <mxCell id="c1VsCLN2mkpz4TLPh9um-5" value="BUSINESS MEALS" style="rounded=0;whiteSpace=wrap;html=1;" parent="1" vertex="1">
          <mxGeometry x="-1908" y="-1114.75" width="120" height="60" as="geometry" />
        </mxCell>
        <mxCell id="UjUhAZu07TOuGVpuegit-133" style="edgeStyle=orthogonalEdgeStyle;rounded=0;orthogonalLoop=1;jettySize=auto;html=1;exitX=1;exitY=0.5;exitDx=0;exitDy=0;entryX=0;entryY=0.5;entryDx=0;entryDy=0;fontSize=53;fontColor=#FF0000;" parent="1" source="UjUhAZu07TOuGVpuegit-1" target="UjUhAZu07TOuGVpuegit-40" edge="1">
          <mxGeometry relative="1" as="geometry">
            <Array as="points">
              <mxPoint x="-1780" y="-986" />
              <mxPoint x="-1780" y="-896" />
            </Array>
          </mxGeometry>
        </mxCell>
        <mxCell id="UjUhAZu07TOuGVpuegit-1" value="ENTERTAINMENT AND HOSPITALITY" style="rounded=0;whiteSpace=wrap;html=1;" parent="1" vertex="1">
          <mxGeometry x="-1908" y="-1016.5" width="120" height="60" as="geometry" />
        </mxCell>
        <mxCell id="UjUhAZu07TOuGVpuegit-4" value="Type" style="text;html=1;strokeColor=none;fillColor=none;align=center;verticalAlign=top;whiteSpace=wrap;rounded=0;fontSize=17;horizontal=1;" parent="1" vertex="1">
          <mxGeometry x="-1868" y="-1463" width="40" height="20" as="geometry" />
        </mxCell>
        <mxCell id="UjUhAZu07TOuGVpuegit-5" value="Value" style="text;html=1;strokeColor=none;fillColor=none;align=center;verticalAlign=top;whiteSpace=wrap;rounded=0;fontSize=17;horizontal=1;" parent="1" vertex="1">
          <mxGeometry x="-1708" y="-1463" width="40" height="20" as="geometry" />
        </mxCell>
        <mxCell id="UjUhAZu07TOuGVpuegit-6" value="More than once per year" style="text;html=1;strokeColor=none;fillColor=none;align=center;verticalAlign=top;whiteSpace=wrap;rounded=0;fontSize=17;horizontal=1;" parent="1" vertex="1">
          <mxGeometry x="-1578" y="-1473" width="110" height="40" as="geometry" />
        </mxCell>
        <mxCell id="UjUhAZu07TOuGVpuegit-12" value="&lt;div&gt;Approve&lt;/div&gt;&lt;div&gt;&lt;br&gt;&lt;/div&gt;" style="text;html=1;strokeColor=none;fillColor=none;align=center;verticalAlign=top;whiteSpace=wrap;rounded=0;fontSize=17;horizontal=1;" parent="1" vertex="1">
          <mxGeometry x="-1358" y="-1483" width="110" height="40" as="geometry" />
        </mxCell>
        <mxCell id="UjUhAZu07TOuGVpuegit-22" style="edgeStyle=orthogonalEdgeStyle;rounded=0;orthogonalLoop=1;jettySize=auto;html=1;exitX=0.5;exitY=0;exitDx=0;exitDy=0;entryX=0;entryY=0.5;entryDx=0;entryDy=0;fontSize=12;" parent="1" source="UjUhAZu07TOuGVpuegit-15" target="UjUhAZu07TOuGVpuegit-16" edge="1">
          <mxGeometry relative="1" as="geometry">
            <Array as="points">
              <mxPoint x="-1753" y="-1259.75" />
            </Array>
          </mxGeometry>
        </mxCell>
        <mxCell id="UjUhAZu07TOuGVpuegit-23" style="edgeStyle=orthogonalEdgeStyle;rounded=0;orthogonalLoop=1;jettySize=auto;html=1;exitX=0.5;exitY=1;exitDx=0;exitDy=0;entryX=0;entryY=0.5;entryDx=0;entryDy=0;fontSize=12;" parent="1" source="UjUhAZu07TOuGVpuegit-15" target="UjUhAZu07TOuGVpuegit-17" edge="1">
          <mxGeometry relative="1" as="geometry">
            <Array as="points">
              <mxPoint x="-1753" y="-1201.75" />
            </Array>
          </mxGeometry>
        </mxCell>
        <mxCell id="UjUhAZu07TOuGVpuegit-15" value="" style="rhombus;whiteSpace=wrap;html=1;fontSize=17;" parent="1" vertex="1">
          <mxGeometry x="-1768" y="-1248.75" width="30" height="30" as="geometry" />
        </mxCell>
        <mxCell id="UjUhAZu07TOuGVpuegit-138" style="edgeStyle=orthogonalEdgeStyle;rounded=0;orthogonalLoop=1;jettySize=auto;html=1;exitX=1;exitY=0.5;exitDx=0;exitDy=0;entryX=0;entryY=0.5;entryDx=0;entryDy=0;fontSize=53;fontColor=#FF0000;" parent="1" source="UjUhAZu07TOuGVpuegit-16" target="9Nk0hv0ekXMGAtVD4ZqK-9" edge="1">
          <mxGeometry relative="1" as="geometry">
            <mxPoint x="-1269" y="-1264.75" as="targetPoint" />
          </mxGeometry>
        </mxCell>
        <mxCell id="UjUhAZu07TOuGVpuegit-16" value="&amp;lt;100 EUR" style="rounded=0;whiteSpace=wrap;html=1;fontSize=12;" parent="1" vertex="1">
          <mxGeometry x="-1693" y="-1269.75" width="80" height="20" as="geometry" />
        </mxCell>
        <mxCell id="UjUhAZu07TOuGVpuegit-36" style="edgeStyle=orthogonalEdgeStyle;rounded=0;orthogonalLoop=1;jettySize=auto;html=1;exitX=1;exitY=0.5;exitDx=0;exitDy=0;entryX=0;entryY=0.5;entryDx=0;entryDy=0;fontSize=17;" parent="1" source="UjUhAZu07TOuGVpuegit-17" target="UjUhAZu07TOuGVpuegit-34" edge="1">
          <mxGeometry relative="1" as="geometry" />
        </mxCell>
        <mxCell id="UjUhAZu07TOuGVpuegit-17" value="&amp;gt;100 EUR" style="rounded=0;whiteSpace=wrap;html=1;fontSize=12;" parent="1" vertex="1">
          <mxGeometry x="-1693" y="-1212.25" width="80" height="21" as="geometry" />
        </mxCell>
        <mxCell id="UjUhAZu07TOuGVpuegit-24" value="Approved" style="rounded=1;whiteSpace=wrap;html=1;fontSize=12;arcSize=50;" parent="1" vertex="1">
          <mxGeometry x="-758" y="-950.75" width="120" height="60" as="geometry" />
        </mxCell>
        <mxCell id="UjUhAZu07TOuGVpuegit-37" style="edgeStyle=orthogonalEdgeStyle;rounded=0;orthogonalLoop=1;jettySize=auto;html=1;exitX=1;exitY=0.5;exitDx=0;exitDy=0;entryX=0.75;entryY=0;entryDx=0;entryDy=0;fontSize=17;" parent="1" source="UjUhAZu07TOuGVpuegit-34" target="UjUhAZu07TOuGVpuegit-24" edge="1">
          <mxGeometry relative="1" as="geometry" />
        </mxCell>
        <mxCell id="UjUhAZu07TOuGVpuegit-34" value="Manager" style="rounded=0;whiteSpace=wrap;html=1;fontSize=12;" parent="1" vertex="1">
          <mxGeometry x="-1078" y="-1217.25" width="120" height="31" as="geometry" />
        </mxCell>
        <mxCell id="UjUhAZu07TOuGVpuegit-35" value="Notify" style="text;html=1;strokeColor=none;fillColor=none;align=center;verticalAlign=top;whiteSpace=wrap;rounded=0;fontSize=17;horizontal=1;" parent="1" vertex="1">
          <mxGeometry x="-1073" y="-1473" width="110" height="40" as="geometry" />
        </mxCell>
        <mxCell id="UjUhAZu07TOuGVpuegit-38" style="edgeStyle=orthogonalEdgeStyle;rounded=0;orthogonalLoop=1;jettySize=auto;html=1;exitX=0.5;exitY=0;exitDx=0;exitDy=0;entryX=0;entryY=0.5;entryDx=0;entryDy=0;fontSize=12;" parent="1" source="UjUhAZu07TOuGVpuegit-40" target="UjUhAZu07TOuGVpuegit-41" edge="1">
          <mxGeometry relative="1" as="geometry">
            <Array as="points">
              <mxPoint x="-1725" y="-928.25" />
              <mxPoint x="-1690" y="-928.25" />
            </Array>
          </mxGeometry>
        </mxCell>
        <mxCell id="UjUhAZu07TOuGVpuegit-39" style="edgeStyle=orthogonalEdgeStyle;rounded=0;orthogonalLoop=1;jettySize=auto;html=1;exitX=0.5;exitY=1;exitDx=0;exitDy=0;entryX=0;entryY=0.5;entryDx=0;entryDy=0;fontSize=12;" parent="1" source="UjUhAZu07TOuGVpuegit-40" target="UjUhAZu07TOuGVpuegit-42" edge="1">
          <mxGeometry relative="1" as="geometry">
            <Array as="points">
              <mxPoint x="-1745" y="-871.25" />
            </Array>
          </mxGeometry>
        </mxCell>
        <mxCell id="UjUhAZu07TOuGVpuegit-40" value="" style="rhombus;whiteSpace=wrap;html=1;fontSize=17;" parent="1" vertex="1">
          <mxGeometry x="-1760" y="-911.25" width="30" height="30" as="geometry" />
        </mxCell>
        <mxCell id="UjUhAZu07TOuGVpuegit-87" style="edgeStyle=orthogonalEdgeStyle;rounded=0;orthogonalLoop=1;jettySize=auto;html=1;exitX=1;exitY=0.5;exitDx=0;exitDy=0;entryX=0;entryY=0.5;entryDx=0;entryDy=0;fontSize=17;" parent="1" source="UjUhAZu07TOuGVpuegit-41" target="UjUhAZu07TOuGVpuegit-66" edge="1">
          <mxGeometry relative="1" as="geometry">
            <Array as="points">
              <mxPoint x="-1595" y="-928.5" />
              <mxPoint x="-1595" y="-938.5" />
            </Array>
          </mxGeometry>
        </mxCell>
        <mxCell id="UjUhAZu07TOuGVpuegit-41" value="&amp;lt;250 EUR" style="rounded=0;whiteSpace=wrap;html=1;fontSize=12;" parent="1" vertex="1">
          <mxGeometry x="-1690" y="-938.75" width="80" height="20" as="geometry" />
        </mxCell>
        <mxCell id="UjUhAZu07TOuGVpuegit-88" style="edgeStyle=orthogonalEdgeStyle;rounded=0;orthogonalLoop=1;jettySize=auto;html=1;exitX=1;exitY=0.5;exitDx=0;exitDy=0;entryX=0;entryY=0.5;entryDx=0;entryDy=0;fontSize=17;" parent="1" source="UjUhAZu07TOuGVpuegit-42" target="UjUhAZu07TOuGVpuegit-52" edge="1">
          <mxGeometry relative="1" as="geometry">
            <Array as="points">
              <mxPoint x="-1595" y="-870.5" />
              <mxPoint x="-1595" y="-764.5" />
            </Array>
          </mxGeometry>
        </mxCell>
        <mxCell id="UjUhAZu07TOuGVpuegit-42" value="&amp;gt;250 EUR" style="rounded=0;whiteSpace=wrap;html=1;fontSize=12;" parent="1" vertex="1">
          <mxGeometry x="-1690" y="-881.25" width="80" height="21" as="geometry" />
        </mxCell>
        <mxCell id="UjUhAZu07TOuGVpuegit-50" style="edgeStyle=orthogonalEdgeStyle;rounded=0;orthogonalLoop=1;jettySize=auto;html=1;exitX=0.5;exitY=0;exitDx=0;exitDy=0;entryX=0;entryY=0.5;entryDx=0;entryDy=0;fontSize=12;" parent="1" source="UjUhAZu07TOuGVpuegit-52" target="UjUhAZu07TOuGVpuegit-53" edge="1">
          <mxGeometry relative="1" as="geometry">
            <Array as="points">
              <mxPoint x="-1560" y="-812.5" />
            </Array>
          </mxGeometry>
        </mxCell>
        <mxCell id="UjUhAZu07TOuGVpuegit-51" style="edgeStyle=orthogonalEdgeStyle;rounded=0;orthogonalLoop=1;jettySize=auto;html=1;exitX=0.5;exitY=1;exitDx=0;exitDy=0;entryX=0;entryY=0.5;entryDx=0;entryDy=0;fontSize=12;" parent="1" source="UjUhAZu07TOuGVpuegit-52" target="UjUhAZu07TOuGVpuegit-54" edge="1">
          <mxGeometry relative="1" as="geometry">
            <Array as="points">
              <mxPoint x="-1560" y="-732.5" />
            </Array>
          </mxGeometry>
        </mxCell>
        <mxCell id="UjUhAZu07TOuGVpuegit-52" value="" style="rhombus;whiteSpace=wrap;html=1;fontSize=17;" parent="1" vertex="1">
          <mxGeometry x="-1575" y="-779.5" width="30" height="30" as="geometry" />
        </mxCell>
        <mxCell id="UjUhAZu07TOuGVpuegit-59" style="edgeStyle=orthogonalEdgeStyle;rounded=0;orthogonalLoop=1;jettySize=auto;html=1;exitX=1;exitY=0.5;exitDx=0;exitDy=0;fontSize=17;entryX=0;entryY=0.5;entryDx=0;entryDy=0;" parent="1" source="UjUhAZu07TOuGVpuegit-53" target="UjUhAZu07TOuGVpuegit-58" edge="1">
          <mxGeometry relative="1" as="geometry">
            <Array as="points">
              <mxPoint x="-1445" y="-812.5" />
              <mxPoint x="-1445" y="-812.5" />
            </Array>
          </mxGeometry>
        </mxCell>
        <mxCell id="UjUhAZu07TOuGVpuegit-53" value="Yes" style="rounded=0;whiteSpace=wrap;html=1;fontSize=12;" parent="1" vertex="1">
          <mxGeometry x="-1505" y="-822.5" width="40" height="20" as="geometry" />
        </mxCell>
        <mxCell id="UjUhAZu07TOuGVpuegit-62" style="edgeStyle=orthogonalEdgeStyle;rounded=0;orthogonalLoop=1;jettySize=auto;html=1;exitX=1;exitY=0.5;exitDx=0;exitDy=0;entryX=0;entryY=0.5;entryDx=0;entryDy=0;fontSize=17;" parent="1" source="UjUhAZu07TOuGVpuegit-54" target="UjUhAZu07TOuGVpuegit-56" edge="1">
          <mxGeometry relative="1" as="geometry" />
        </mxCell>
        <mxCell id="UjUhAZu07TOuGVpuegit-54" value="No" style="rounded=0;whiteSpace=wrap;html=1;fontSize=12;" parent="1" vertex="1">
          <mxGeometry x="-1505" y="-742.75" width="40" height="21" as="geometry" />
        </mxCell>
        <mxCell id="UjUhAZu07TOuGVpuegit-84" style="edgeStyle=orthogonalEdgeStyle;rounded=0;orthogonalLoop=1;jettySize=auto;html=1;exitX=1;exitY=0.5;exitDx=0;exitDy=0;fontSize=17;entryX=0.147;entryY=0.99;entryDx=0;entryDy=0;entryPerimeter=0;" parent="1" source="UjUhAZu07TOuGVpuegit-55" target="UjUhAZu07TOuGVpuegit-24" edge="1">
          <mxGeometry relative="1" as="geometry">
            <mxPoint x="-750" y="-860" as="targetPoint" />
            <Array as="points">
              <mxPoint x="-740" y="-812" />
              <mxPoint x="-740" y="-840" />
              <mxPoint x="-740" y="-840" />
            </Array>
          </mxGeometry>
        </mxCell>
        <mxCell id="UjUhAZu07TOuGVpuegit-55" value="Legal" style="rounded=0;whiteSpace=wrap;html=1;fontSize=12;" parent="1" vertex="1">
          <mxGeometry x="-1285" y="-828" width="120" height="31" as="geometry" />
        </mxCell>
        <mxCell id="UjUhAZu07TOuGVpuegit-63" style="edgeStyle=orthogonalEdgeStyle;rounded=0;orthogonalLoop=1;jettySize=auto;html=1;exitX=1;exitY=0.5;exitDx=0;exitDy=0;fontSize=17;" parent="1" source="UjUhAZu07TOuGVpuegit-56" target="UjUhAZu07TOuGVpuegit-57" edge="1">
          <mxGeometry relative="1" as="geometry" />
        </mxCell>
        <mxCell id="UjUhAZu07TOuGVpuegit-56" value="Manager" style="rounded=0;whiteSpace=wrap;html=1;fontSize=12;" parent="1" vertex="1">
          <mxGeometry x="-1435" y="-747.75" width="120" height="31" as="geometry" />
        </mxCell>
        <mxCell id="UjUhAZu07TOuGVpuegit-86" style="edgeStyle=orthogonalEdgeStyle;rounded=0;orthogonalLoop=1;jettySize=auto;html=1;exitX=1;exitY=0.5;exitDx=0;exitDy=0;entryX=0.5;entryY=1;entryDx=0;entryDy=0;fontSize=17;" parent="1" source="UjUhAZu07TOuGVpuegit-57" target="UjUhAZu07TOuGVpuegit-24" edge="1">
          <mxGeometry relative="1" as="geometry">
            <Array as="points">
              <mxPoint x="-698" y="-732" />
            </Array>
          </mxGeometry>
        </mxCell>
        <mxCell id="UjUhAZu07TOuGVpuegit-57" value="Legal" style="rounded=0;whiteSpace=wrap;html=1;fontSize=12;" parent="1" vertex="1">
          <mxGeometry x="-1075" y="-747.75" width="120" height="31" as="geometry" />
        </mxCell>
        <mxCell id="UjUhAZu07TOuGVpuegit-129" style="edgeStyle=orthogonalEdgeStyle;rounded=0;orthogonalLoop=1;jettySize=auto;html=1;exitX=1;exitY=0.5;exitDx=0;exitDy=0;entryX=0;entryY=0.5;entryDx=0;entryDy=0;fontSize=17;" parent="1" source="UjUhAZu07TOuGVpuegit-58" target="UjUhAZu07TOuGVpuegit-55" edge="1">
          <mxGeometry relative="1" as="geometry" />
        </mxCell>
        <mxCell id="UjUhAZu07TOuGVpuegit-58" value="Manager" style="rounded=0;whiteSpace=wrap;html=1;fontSize=12;" parent="1" vertex="1">
          <mxGeometry x="-1435" y="-828" width="120" height="31" as="geometry" />
        </mxCell>
        <mxCell id="UjUhAZu07TOuGVpuegit-64" style="edgeStyle=orthogonalEdgeStyle;rounded=0;orthogonalLoop=1;jettySize=auto;html=1;exitX=0.5;exitY=0;exitDx=0;exitDy=0;entryX=0;entryY=0.5;entryDx=0;entryDy=0;fontSize=12;" parent="1" source="UjUhAZu07TOuGVpuegit-66" target="UjUhAZu07TOuGVpuegit-69" edge="1">
          <mxGeometry relative="1" as="geometry">
            <Array as="points">
              <mxPoint x="-1560" y="-963.5" />
            </Array>
          </mxGeometry>
        </mxCell>
        <mxCell id="UjUhAZu07TOuGVpuegit-65" style="edgeStyle=orthogonalEdgeStyle;rounded=0;orthogonalLoop=1;jettySize=auto;html=1;exitX=0.5;exitY=1;exitDx=0;exitDy=0;entryX=0;entryY=0.5;entryDx=0;entryDy=0;fontSize=12;" parent="1" source="UjUhAZu07TOuGVpuegit-66" target="UjUhAZu07TOuGVpuegit-71" edge="1">
          <mxGeometry relative="1" as="geometry">
            <Array as="points">
              <mxPoint x="-1560" y="-899.5" />
            </Array>
          </mxGeometry>
        </mxCell>
        <mxCell id="UjUhAZu07TOuGVpuegit-66" value="" style="rhombus;whiteSpace=wrap;html=1;fontSize=17;" parent="1" vertex="1">
          <mxGeometry x="-1575" y="-953.5" width="30" height="30" as="geometry" />
        </mxCell>
        <mxCell id="UjUhAZu07TOuGVpuegit-67" style="edgeStyle=orthogonalEdgeStyle;rounded=0;orthogonalLoop=1;jettySize=auto;html=1;exitX=1;exitY=0.5;exitDx=0;exitDy=0;fontSize=17;entryX=0;entryY=0.5;entryDx=0;entryDy=0;" parent="1" source="UjUhAZu07TOuGVpuegit-69" target="UjUhAZu07TOuGVpuegit-76" edge="1">
          <mxGeometry relative="1" as="geometry">
            <Array as="points">
              <mxPoint x="-1445" y="-963.5" />
              <mxPoint x="-1445" y="-963.5" />
            </Array>
          </mxGeometry>
        </mxCell>
        <mxCell id="UjUhAZu07TOuGVpuegit-69" value="Yes" style="rounded=0;whiteSpace=wrap;html=1;fontSize=12;" parent="1" vertex="1">
          <mxGeometry x="-1505" y="-973.5" width="40" height="20" as="geometry" />
        </mxCell>
        <mxCell id="UjUhAZu07TOuGVpuegit-130" style="edgeStyle=orthogonalEdgeStyle;rounded=0;orthogonalLoop=1;jettySize=auto;html=1;exitX=1;exitY=0.5;exitDx=0;exitDy=0;fontSize=17;entryX=0;entryY=0.5;entryDx=0;entryDy=0;startArrow=none;" parent="1" source="eKk7WqRYk41ZVbVH4nbu-3" target="9Nk0hv0ekXMGAtVD4ZqK-10" edge="1">
          <mxGeometry relative="1" as="geometry">
            <mxPoint x="-1205" y="-904.5" as="targetPoint" />
          </mxGeometry>
        </mxCell>
        <mxCell id="UjUhAZu07TOuGVpuegit-71" value="No" style="rounded=0;whiteSpace=wrap;html=1;fontSize=12;" parent="1" vertex="1">
          <mxGeometry x="-1505" y="-910" width="40" height="21" as="geometry" />
        </mxCell>
        <mxCell id="UjUhAZu07TOuGVpuegit-80" style="edgeStyle=orthogonalEdgeStyle;rounded=0;orthogonalLoop=1;jettySize=auto;html=1;exitX=1;exitY=0.5;exitDx=0;exitDy=0;fontSize=17;entryX=0.25;entryY=0;entryDx=0;entryDy=0;" parent="1" source="UjUhAZu07TOuGVpuegit-72" target="UjUhAZu07TOuGVpuegit-24" edge="1">
          <mxGeometry relative="1" as="geometry">
            <mxPoint x="-728" y="-1022" as="targetPoint" />
          </mxGeometry>
        </mxCell>
        <mxCell id="UjUhAZu07TOuGVpuegit-72" value="Legal" style="rounded=0;whiteSpace=wrap;html=1;fontSize=12;" parent="1" vertex="1">
          <mxGeometry x="-1285" y="-979" width="120" height="31" as="geometry" />
        </mxCell>
        <mxCell id="UjUhAZu07TOuGVpuegit-79" style="edgeStyle=orthogonalEdgeStyle;rounded=0;orthogonalLoop=1;jettySize=auto;html=1;exitX=1;exitY=0.5;exitDx=0;exitDy=0;entryX=0;entryY=0.5;entryDx=0;entryDy=0;fontSize=17;" parent="1" source="UjUhAZu07TOuGVpuegit-76" target="UjUhAZu07TOuGVpuegit-72" edge="1">
          <mxGeometry relative="1" as="geometry">
            <mxPoint x="-954" y="-966.01425" as="targetPoint" />
          </mxGeometry>
        </mxCell>
        <mxCell id="UjUhAZu07TOuGVpuegit-76" value="Manager" style="rounded=0;whiteSpace=wrap;html=1;fontSize=12;" parent="1" vertex="1">
          <mxGeometry x="-1435" y="-979" width="120" height="31" as="geometry" />
        </mxCell>
        <mxCell id="9Nk0hv0ekXMGAtVD4ZqK-11" style="edgeStyle=orthogonalEdgeStyle;rounded=0;orthogonalLoop=1;jettySize=auto;html=1;exitX=1;exitY=0.5;exitDx=0;exitDy=0;entryX=0.925;entryY=0.145;entryDx=0;entryDy=0;entryPerimeter=0;fontSize=53;fontColor=#FF0000;" parent="1" source="9Nk0hv0ekXMGAtVD4ZqK-9" target="UjUhAZu07TOuGVpuegit-24" edge="1">
          <mxGeometry relative="1" as="geometry" />
        </mxCell>
        <mxCell id="9Nk0hv0ekXMGAtVD4ZqK-9" value="Coordinator" style="rounded=0;whiteSpace=wrap;html=1;fontSize=12;" parent="1" vertex="1">
          <mxGeometry x="-1078" y="-1275.25" width="120" height="31" as="geometry" />
        </mxCell>
        <mxCell id="9Nk0hv0ekXMGAtVD4ZqK-12" style="edgeStyle=orthogonalEdgeStyle;rounded=0;orthogonalLoop=1;jettySize=auto;html=1;exitX=1;exitY=0.5;exitDx=0;exitDy=0;entryX=0.121;entryY=0.086;entryDx=0;entryDy=0;entryPerimeter=0;fontSize=53;fontColor=#FF0000;" parent="1" source="9Nk0hv0ekXMGAtVD4ZqK-10" target="UjUhAZu07TOuGVpuegit-24" edge="1">
          <mxGeometry relative="1" as="geometry" />
        </mxCell>
        <mxCell id="9Nk0hv0ekXMGAtVD4ZqK-10" value="Coordinator" style="rounded=0;whiteSpace=wrap;html=1;fontSize=12;" parent="1" vertex="1">
          <mxGeometry x="-1075" y="-920" width="120" height="31" as="geometry" />
        </mxCell>
        <mxCell id="9Nk0hv0ekXMGAtVD4ZqK-14" value="Coordinator" style="rounded=0;whiteSpace=wrap;html=1;fontSize=12;" parent="1" vertex="1">
          <mxGeometry x="-1078" y="-1100.25" width="120" height="31" as="geometry" />
        </mxCell>
        <mxCell id="9Nk0hv0ekXMGAtVD4ZqK-15" value="" style="edgeStyle=orthogonalEdgeStyle;rounded=0;orthogonalLoop=1;jettySize=auto;html=1;exitX=1;exitY=0.5;exitDx=0;exitDy=0;fontSize=12;entryX=0;entryY=0.5;entryDx=0;entryDy=0;endArrow=classic;endFill=1;" parent="1" source="c1VsCLN2mkpz4TLPh9um-5" target="eKk7WqRYk41ZVbVH4nbu-1" edge="1">
          <mxGeometry relative="1" as="geometry">
            <mxPoint x="-698" y="-950.75" as="targetPoint" />
            <mxPoint x="-1787.9999999999995" y="-1203" as="sourcePoint" />
          </mxGeometry>
        </mxCell>
        <mxCell id="9Nk0hv0ekXMGAtVD4ZqK-23" value="Accepting" style="text;html=1;strokeColor=none;fillColor=none;align=center;verticalAlign=middle;whiteSpace=wrap;rounded=0;fontSize=53;" parent="1" vertex="1">
          <mxGeometry x="-1500" y="-1610" width="40" height="20" as="geometry" />
        </mxCell>
        <mxCell id="eKk7WqRYk41ZVbVH4nbu-2" style="edgeStyle=orthogonalEdgeStyle;rounded=0;orthogonalLoop=1;jettySize=auto;html=1;exitX=1;exitY=0.5;exitDx=0;exitDy=0;entryX=0;entryY=0.5;entryDx=0;entryDy=0;fontSize=53;fontColor=#000000;endArrow=classic;endFill=1;" edge="1" parent="1" source="eKk7WqRYk41ZVbVH4nbu-1" target="9Nk0hv0ekXMGAtVD4ZqK-14">
          <mxGeometry relative="1" as="geometry" />
        </mxCell>
        <mxCell id="eKk7WqRYk41ZVbVH4nbu-1" value="Highest ranking employee present" style="rounded=0;whiteSpace=wrap;html=1;fontSize=12;" vertex="1" parent="1">
          <mxGeometry x="-1435" y="-1100.25" width="208" height="31" as="geometry" />
        </mxCell>
        <mxCell id="eKk7WqRYk41ZVbVH4nbu-3" value="Highest ranking employee present" style="rounded=0;whiteSpace=wrap;html=1;fontSize=12;" vertex="1" parent="1">
          <mxGeometry x="-1435" y="-920" width="208" height="31" as="geometry" />
        </mxCell>
        <mxCell id="eKk7WqRYk41ZVbVH4nbu-4" value="" style="edgeStyle=orthogonalEdgeStyle;rounded=0;orthogonalLoop=1;jettySize=auto;html=1;exitX=1;exitY=0.25;exitDx=0;exitDy=0;fontSize=17;entryX=0;entryY=0.5;entryDx=0;entryDy=0;endArrow=classic;endFill=1;" edge="1" parent="1" source="UjUhAZu07TOuGVpuegit-71" target="eKk7WqRYk41ZVbVH4nbu-3">
          <mxGeometry relative="1" as="geometry">
            <mxPoint x="-1075" y="-904.5" as="targetPoint" />
            <mxPoint x="-1465" y="-904.75" as="sourcePoint" />
          </mxGeometry>
        </mxCell>
      </root>
    </mxGraphModel>
  </diagram>
</mxfile>
